<?xml version="1.0" standalone="no"?>
<!DOCTYPE svg PUBLIC "-//W3C//DTD SVG 20010904//EN"
 "http://www.w3.org/TR/2001/REC-SVG-20010904/DTD/svg10.dtd">
<svg version="1.0" xmlns="http://www.w3.org/2000/svg"
 width="267.000000pt" height="189.000000pt" viewBox="0 0 267.000000 189.000000"
 preserveAspectRatio="xMidYMid meet">

<g transform="translate(0.000000,189.000000) scale(0.100000,-0.100000)"
fill="#000000" stroke="none">
<path d="M884 1401 c-344 -170 -672 -450 -708 -602 -15 -68 71 -109 239 -114
61 -2 99 -2 85 1 -112 22 -189 98 -169 166 29 103 299 345 627 563 65 43 80
55 68 55 -2 0 -66 -31 -142 -69z"/>
<path d="M1079 1417 c-120 -50 -253 -136 -354 -230 -48 -46 -46 -45 70 29 210
133 332 179 364 140 8 -9 15 -37 15 -61 1 -25 2 -45 3 -45 1 0 12 32 24 70 28
93 21 120 -29 120 -20 0 -62 -11 -93 -23z"/>
<path d="M770 960 l0 -220 46 0 45 0 -2 70 c-2 68 -1 72 31 105 19 19 36 35
39 35 4 0 33 -47 66 -105 l60 -105 713 0 712 0 0 35 0 35 -679 0 -680 0 -66
101 -66 102 47 48 48 49 698 0 698 0 0 35 0 35 -719 0 -720 0 -88 -95 c-48
-52 -90 -95 -93 -95 -3 0 -5 43 -5 95 l0 95 -42 0 -43 0 0 -220z"/>
<path d="M1291 1058 c-5 -13 -19 -48 -31 -78 -50 -124 -51 -130 -29 -130 12 0
23 10 29 25 8 22 15 25 60 25 44 0 52 -3 62 -25 6 -14 20 -25 31 -25 22 0 24
-9 -31 133 -32 83 -40 97 -60 97 -14 0 -26 -8 -31 -22z m48 -69 c16 -46 14
-49 -19 -49 -34 0 -34 1 -18 47 15 41 23 42 37 2z"/>
<path d="M1470 965 l0 -115 80 0 c64 0 80 3 80 15 0 12 -13 15 -60 15 l-60 0
0 100 c0 93 -1 100 -20 100 -19 0 -20 -7 -20 -115z"/>
<path d="M1692 972 c-23 -60 -42 -112 -42 -115 0 -4 9 -7 20 -7 13 0 22 9 26
25 6 23 11 25 60 25 49 0 54 -2 60 -25 4 -18 13 -25 30 -25 l24 0 -19 48 c-67
167 -74 182 -96 182 -19 0 -28 -17 -63 -108z m83 12 c19 -47 21 -44 -20 -44
-23 0 -33 4 -30 13 18 50 25 67 30 67 2 0 12 -16 20 -36z"/>
<path d="M1860 1061 c0 -15 7 -19 33 -17 l32 1 3 -97 c2 -89 4 -98 22 -98 18
0 20 9 22 98 l3 97 33 0 c24 0 32 4 32 17 0 16 -11 18 -90 18 -82 0 -90 -2
-90 -19z"/>
<path d="M2080 965 l0 -115 85 0 c74 0 85 2 85 18 0 15 -8 17 -65 14 l-65 -4
0 36 0 36 55 0 c48 0 55 2 55 20 0 18 -7 20 -56 20 -54 0 -55 0 -52 28 3 26 5
27 61 27 48 0 57 3 57 18 0 15 -10 17 -80 17 l-80 0 0 -115z"/>
<path d="M2319 1051 c-25 -26 -29 -37 -29 -86 0 -49 4 -60 29 -86 39 -39 100
-41 136 -4 29 28 31 40 9 49 -10 4 -23 -3 -36 -19 -40 -52 -98 -16 -98 60 0
74 56 110 98 65 12 -13 25 -18 35 -14 24 9 21 19 -9 43 -41 32 -98 28 -135 -8z"/>
<path d="M821 663 c-38 -39 -43 -48 -27 -51 11 -2 31 9 50 27 32 31 32 31 51
11 18 -20 18 -20 -13 -20 -17 0 -34 -4 -37 -10 -4 -6 18 -10 60 -10 l66 0 -36
44 c-51 63 -60 64 -114 9z"/>
<path d="M997 703 c-13 -12 -7 -62 9 -77 18 -18 104 -22 135 -6 24 14 28 90 4
90 -10 0 -15 -10 -15 -27 0 -44 -13 -55 -56 -51 -37 3 -39 5 -42 41 -3 34 -18
48 -35 30z"/>
<path d="M1190 695 c-11 -13 -8 -15 14 -15 23 0 26 -4 26 -35 0 -24 5 -35 15
-35 10 0 15 11 15 35 0 28 4 35 19 35 10 0 24 7 31 15 11 13 5 15 -48 15 -41
0 -63 -5 -72 -15z"/>
<path d="M1353 699 c-42 -12 -53 -46 -23 -71 25 -20 118 -25 151 -8 22 12 25
52 5 69 -19 16 -95 22 -133 10z m112 -29 c13 -21 -17 -40 -61 -40 -45 0 -60
11 -50 35 6 18 101 21 111 5z"/>
<path d="M1555 701 c-3 -6 -12 -28 -20 -50 -13 -39 -13 -41 5 -41 13 0 22 9
26 26 l7 25 26 -25 c34 -32 44 -32 69 -1 11 14 22 25 25 25 3 0 8 -11 11 -25
4 -16 13 -25 26 -25 19 0 19 1 3 43 -24 63 -29 65 -67 28 l-35 -34 -26 32
c-28 32 -40 38 -50 22z"/>
<path d="M1814 663 c-33 -36 -40 -49 -28 -51 9 -2 31 10 48 27 32 31 32 31 51
11 18 -20 18 -20 -13 -20 -17 0 -34 -4 -37 -10 -4 -6 18 -10 60 -10 61 0 65 1
56 19 -11 19 -77 81 -87 81 -4 0 -26 -21 -50 -47z"/>
<path d="M2025 703 c-29 -7 -45 -23 -45 -43 0 -21 31 -50 55 -50 10 0 24 -8
32 -17 14 -17 14 -17 9 0 -4 13 0 17 21 17 17 0 39 12 58 30 31 30 31 30 50
10 18 -20 18 -20 -13 -20 -17 0 -34 -4 -37 -10 -4 -6 18 -10 60 -10 61 0 65 1
56 19 -17 31 -80 81 -95 75 -8 -3 -27 -21 -41 -40 -22 -28 -32 -34 -64 -34
-39 0 -68 20 -56 40 3 5 28 10 54 10 31 0 53 5 61 15 11 13 6 15 -36 14 -27
-1 -58 -4 -69 -6z"/>
<path d="M2355 703 c-23 -6 -55 -32 -55 -45 0 -4 9 -17 20 -28 15 -15 33 -20
76 -20 30 0 64 5 75 10 22 12 25 52 5 69 -15 13 -92 22 -121 14z m100 -48 c0
-17 -8 -20 -49 -23 -52 -3 -72 7 -62 33 4 13 17 15 58 13 45 -3 53 -6 53 -23z"/>
</g>
</svg>
