<?xml version="1.0" standalone="no"?>
<!DOCTYPE svg PUBLIC "-//W3C//DTD SVG 20010904//EN"
 "http://www.w3.org/TR/2001/REC-SVG-20010904/DTD/svg10.dtd">
<svg version="1.0" xmlns="http://www.w3.org/2000/svg"
 width="298.000000pt" height="169.000000pt" viewBox="0 0 298.000000 169.000000"
 preserveAspectRatio="xMidYMid meet">

<g transform="translate(0.000000,169.000000) scale(0.100000,-0.100000)"
fill="#000000" stroke="none">
<path d="M120 1040 c-47 -11 -70 -43 -70 -94 0 -51 18 -70 107 -115 35 -17 64
-39 68 -50 16 -52 -42 -81 -125 -62 -45 10 -59 4 -60 -26 0 -32 157 -36 199
-5 43 31 56 67 39 110 -12 31 -26 43 -91 77 -90 46 -107 74 -66 108 20 16 33
18 80 13 48 -6 58 -4 63 10 4 10 3 21 -1 25 -13 13 -105 19 -143 9z"/>
<path d="M2596 1038 c5 -7 30 -43 56 -81 26 -37 48 -73 48 -80 0 -6 -29 -53
-65 -102 -35 -50 -65 -93 -65 -97 0 -5 20 -8 44 -8 44 0 45 1 91 70 26 39 51
70 56 70 5 0 30 -31 55 -70 l47 -70 49 0 49 0 -72 104 c-48 69 -69 108 -63
117 4 8 29 44 56 80 26 37 48 70 48 73 0 3 -20 6 -44 6 -42 0 -45 -2 -81 -55
-43 -61 -46 -61 -91 10 -27 43 -30 45 -77 45 -36 0 -46 -3 -41 -12z"/>
<path d="M950 875 c0 -152 2 -167 20 -185 15 -15 33 -20 70 -20 46 0 50 2 50
23 0 20 -4 23 -28 19 -49 -7 -63 18 -60 107 l3 76 43 3 c34 3 42 7 42 23 0 16
-7 19 -45 19 l-45 0 0 50 c0 47 -2 50 -25 50 l-25 0 0 -165z"/>
<path d="M1920 995 l0 -45 -46 0 c-85 0 -131 -37 -148 -117 -10 -43 10 -110
41 -139 31 -28 96 -33 131 -8 20 14 22 14 22 0 0 -10 9 -16 25 -16 l25 0 0
185 0 185 -25 0 c-23 0 -25 -4 -25 -45z m-12 -95 c9 0 12 -24 12 -85 0 -93 -8
-105 -69 -105 -84 0 -98 157 -17 190 11 5 30 7 41 5 11 -3 26 -5 33 -5z"/>
<path d="M403 935 c-85 -37 -99 -195 -22 -249 30 -21 97 -21 121 0 16 16 18
16 24 0 3 -9 17 -16 30 -16 l24 0 0 130 0 130 -26 10 c-36 14 -114 12 -151 -5z
m108 -35 c6 0 9 -36 7 -87 -3 -85 -4 -88 -30 -97 -46 -16 -81 2 -97 52 -19 61
1 112 49 129 19 7 41 10 48 7 8 -2 18 -4 23 -4z"/>
<path d="M678 943 l-28 -4 0 -135 0 -134 25 0 25 0 0 114 0 114 30 5 c40 9 87
-10 94 -36 3 -12 6 -61 6 -109 0 -87 0 -88 25 -88 l25 0 0 109 c0 101 -2 112
-24 137 -20 24 -31 28 -87 30 -35 1 -76 0 -91 -3z"/>
<path d="M1195 936 c-57 -25 -70 -50 -70 -133 0 -72 1 -76 33 -104 38 -34 103
-40 134 -13 16 16 18 16 24 0 3 -9 17 -16 30 -16 l24 0 0 130 0 130 -26 10
c-36 14 -113 12 -149 -4z m93 -32 c22 -6 23 -10 20 -93 -3 -83 -4 -86 -30 -95
-69 -24 -123 44 -99 125 9 30 20 44 44 54 38 17 36 16 65 9z"/>
<path d="M1468 943 l-28 -4 0 -135 0 -134 25 0 25 0 0 114 0 114 26 6 c41 11
80 -2 93 -30 6 -14 11 -65 11 -114 0 -89 0 -90 25 -90 l25 0 0 109 c0 101 -2
112 -24 137 -20 24 -31 28 -87 30 -35 1 -76 0 -91 -3z"/>
<path d="M2088 934 c-38 -20 -58 -63 -58 -124 0 -96 45 -140 144 -140 70 0 86
7 86 36 0 21 -3 23 -26 14 -58 -22 -124 -5 -143 37 -6 13 -11 26 -11 28 0 2
44 6 98 7 l97 3 -3 35 c-4 54 -22 90 -53 105 -36 19 -96 18 -131 -1z m115 -56
c33 -39 23 -48 -53 -48 -38 0 -70 2 -70 4 0 3 4 16 10 31 18 47 77 54 113 13z"/>
<path d="M2353 943 c-23 -4 -23 -7 -23 -139 l0 -134 30 0 30 0 0 114 c0 124 1
126 61 126 22 0 29 5 29 20 0 18 -6 20 -52 19 -29 -1 -63 -4 -75 -6z"/>
</g>
</svg>
