<?xml version="1.0" standalone="no"?>
<!DOCTYPE svg PUBLIC "-//W3C//DTD SVG 20010904//EN"
 "http://www.w3.org/TR/2001/REC-SVG-20010904/DTD/svg10.dtd">
<svg version="1.0" xmlns="http://www.w3.org/2000/svg"
 width="334.000000pt" height="151.000000pt" viewBox="0 0 334.000000 151.000000"
 preserveAspectRatio="xMidYMid meet">

<g transform="translate(0.000000,151.000000) scale(0.100000,-0.100000)"
fill="#000000" stroke="none">
<path d="M670 1132 c0 -31 11 -63 40 -116 44 -80 45 -83 30 -121 -10 -27 -10
-27 -39 27 -82 152 -91 163 -91 108 0 -17 18 -64 40 -104 39 -72 48 -108 31
-134 -6 -10 -22 10 -55 67 -25 44 -46 87 -46 96 0 38 -94 -7 -118 -58 -11 -22
-11 -32 0 -54 65 -135 431 -112 431 27 0 37 -26 68 -80 92 -23 10 -45 27 -48
38 -4 11 -26 55 -51 98 l-44 77 0 -43z"/>
<path d="M1033 1045 c-35 -15 -49 -48 -39 -89 4 -18 25 -35 69 -58 55 -29 62
-36 62 -63 l0 -30 -68 0 c-55 0 -67 -3 -67 -16 0 -19 28 -29 82 -29 51 0 84
17 98 51 18 43 -4 79 -72 113 -61 31 -78 57 -57 83 10 11 26 14 66 11 45 -4
53 -2 53 13 0 30 -72 38 -127 14z"/>
<path d="M1692 919 c3 -146 10 -159 75 -159 27 0 33 4 33 21 0 15 -5 19 -19
14 -33 -10 -51 20 -51 86 l0 59 34 0 c28 0 46 13 46 33 0 1 -17 2 -37 2 -37 0
-38 1 -41 38 -3 29 -7 37 -23 37 -20 0 -20 -5 -17 -131z"/>
<path d="M2450 1015 c0 -35 0 -35 -44 -35 -67 0 -98 -30 -104 -103 -4 -52 -2
-58 26 -87 34 -34 75 -39 104 -13 11 9 18 11 18 5 0 -7 9 -12 20 -12 19 0 20
7 20 140 0 133 -1 140 -20 140 -16 0 -20 -7 -20 -35z m0 -135 c0 -58 -3 -71
-19 -80 -29 -15 -49 -12 -71 10 -47 47 -7 140 60 140 l30 0 0 -70z"/>
<path d="M1262 970 c-26 -11 -52 -65 -52 -107 0 -40 35 -91 66 -99 15 -4 40
-2 56 4 15 5 37 8 48 5 20 -5 21 -2 18 98 l-3 104 -55 2 c-30 1 -65 -2 -78 -7z
m98 -94 c0 -71 -1 -74 -25 -80 -51 -13 -91 32 -81 90 8 39 38 64 78 64 l28 0
0 -74z"/>
<path d="M1473 973 c-9 -3 -13 -34 -13 -104 0 -92 1 -99 20 -99 19 0 20 7 20
90 l0 90 31 0 c61 0 69 -12 69 -100 0 -73 2 -80 20 -80 18 0 20 7 20 85 0 109
-13 125 -97 124 -32 0 -64 -3 -70 -6z"/>
<path d="M1860 951 c-24 -24 -30 -38 -30 -75 0 -56 15 -91 47 -105 33 -15 54
-14 81 5 12 8 22 10 22 5 0 -6 9 -11 20 -11 20 0 21 5 18 103 l-3 102 -63 3
c-58 3 -65 1 -92 -27z m120 -71 c0 -58 -3 -71 -19 -80 -48 -25 -91 7 -91 70 0
49 30 80 77 80 l33 0 0 -70z"/>
<path d="M2083 973 c-9 -3 -13 -34 -13 -104 0 -99 0 -99 25 -99 25 0 25 1 25
90 l0 90 35 0 c50 0 68 -31 63 -115 -3 -63 -2 -65 21 -65 23 0 23 1 20 86 -5
107 -20 124 -108 123 -31 0 -62 -3 -68 -6z"/>
<path d="M2565 955 c-35 -34 -36 -121 -2 -160 38 -45 157 -45 157 -1 0 11 -8
12 -36 6 -54 -12 -103 10 -104 48 0 8 22 12 75 12 83 0 87 4 64 69 -14 39 -35
51 -89 51 -30 0 -47 -6 -65 -25z m109 -27 c24 -34 20 -38 -39 -38 -59 0 -70
13 -39 44 22 23 60 20 78 -6z"/>
<path d="M2783 973 c-9 -3 -13 -34 -13 -104 0 -92 1 -99 20 -99 17 0 19 8 22
88 l3 87 38 3 c24 2 37 8 37 18 0 10 -12 14 -47 13 -27 0 -54 -3 -60 -6z"/>
<path d="M992 568 c-2 -80 0 -88 20 -102 32 -23 65 -20 93 9 22 21 25 33 25
100 0 43 -4 75 -10 75 -6 0 -10 -33 -10 -80 0 -73 -2 -81 -24 -95 -18 -12 -30
-13 -49 -6 -30 12 -36 29 -40 121 -3 57 -3 55 -5 -22z"/>
<path d="M1330 640 c0 -5 5 -10 11 -10 5 0 7 5 4 10 -3 6 -8 10 -11 10 -2 0
-4 -4 -4 -10z"/>
<path d="M1890 640 c0 -5 5 -10 10 -10 6 0 10 5 10 10 0 6 -4 10 -10 10 -5 0
-10 -4 -10 -10z"/>
<path d="M2050 625 c0 -22 -4 -25 -33 -25 -44 0 -69 -28 -69 -76 0 -52 28 -78
76 -69 l36 7 0 94 c0 52 -2 94 -5 94 -3 0 -5 -11 -5 -25z m-2 -92 c3 -48 1
-54 -22 -65 -22 -9 -29 -8 -46 7 -42 38 -14 119 39 113 24 -3 26 -8 29 -55z"/>
<path d="M2360 625 c0 -22 -4 -25 -33 -25 -45 0 -67 -26 -67 -78 0 -51 31 -78
80 -67 l30 7 0 94 c0 52 -2 94 -5 94 -3 0 -5 -11 -5 -25z m-2 -92 c3 -48 1
-54 -22 -65 -22 -9 -29 -8 -46 7 -42 38 -14 119 39 113 24 -3 26 -8 29 -55z"/>
<path d="M1182 528 l2 -73 3 63 c4 68 14 79 58 68 23 -6 25 -11 25 -66 0 -33
4 -60 10 -60 6 0 10 24 10 54 0 66 -16 86 -71 86 l-39 0 2 -72z"/>
<path d="M1330 530 c0 -38 3 -70 8 -70 4 0 7 31 7 70 0 38 -3 70 -7 70 -5 0
-8 -31 -8 -70z"/>
<path d="M1398 530 c15 -38 32 -70 39 -70 6 0 20 24 31 53 11 28 23 60 27 70
4 9 3 17 -2 17 -6 0 -18 -27 -28 -60 -10 -34 -21 -63 -25 -65 -3 -2 -16 25
-29 61 -12 35 -26 64 -31 64 -4 0 4 -31 18 -70z"/>
<path d="M1536 584 c-16 -15 -20 -38 -17 -79 4 -42 66 -69 101 -44 11 8 8 9
-14 4 -32 -7 -76 16 -76 40 0 12 13 15 56 15 l56 0 -7 27 c-4 16 -11 34 -17
40 -15 18 -63 16 -82 -3z m72 -6 c7 -7 12 -20 12 -30 0 -15 -8 -18 -45 -18
-49 0 -59 15 -29 44 18 19 45 21 62 4z"/>
<path d="M1677 593 c-11 -10 -8 -133 3 -133 6 0 10 28 10 64 0 63 1 65 28 69
26 4 26 4 -4 6 -17 0 -34 -2 -37 -6z"/>
<path d="M1770 585 c-18 -22 -5 -44 35 -61 59 -24 41 -71 -23 -59 -27 5 -27 5
-4 -7 34 -17 77 0 77 32 0 19 -9 29 -38 43 -48 22 -48 52 1 52 17 0 32 3 32 7
0 14 -67 8 -80 -7z"/>
<path d="M1890 530 c0 -40 4 -70 10 -70 6 0 10 30 10 70 0 40 -4 70 -10 70 -6
0 -10 -30 -10 -70z"/>
<path d="M2121 581 c-48 -48 -11 -140 51 -127 17 3 35 6 40 6 5 0 8 30 6 68
l-3 67 -37 3 c-27 2 -43 -3 -57 -17z m79 -50 c0 -50 -3 -61 -20 -66 -27 -9
-60 11 -61 38 -3 61 14 87 58 87 21 0 23 -4 23 -59z"/>
<path d="M2426 578 c-18 -26 -21 -70 -6 -98 13 -24 77 -38 93 -21 9 10 6 12
-13 10 -45 -4 -57 1 -68 26 l-12 25 55 0 c52 0 55 2 55 24 0 54 -74 78 -104
34z m79 -4 c24 -25 13 -39 -33 -42 -35 -3 -42 0 -42 15 0 41 45 57 75 27z"/>
<path d="M2570 580 c-8 -15 -6 -24 10 -40 11 -11 26 -20 34 -20 7 0 20 -7 27
-16 11 -14 10 -18 -6 -30 -12 -9 -32 -12 -50 -9 -28 5 -29 4 -7 -7 34 -17 77
0 77 32 0 19 -9 29 -38 43 -48 22 -48 52 1 52 17 0 32 3 32 7 0 5 -16 8 -35 8
-24 0 -37 -6 -45 -20z"/>
</g>
</svg>
